<mxfile host="app.diagrams.net" agent="Mozilla/5.0 (Windows NT 10.0; Win64; x64) AppleWebKit/537.36 (KHTML, like Gecko) Chrome/140.0.0.0 Safari/537.36" version="28.2.4" pages="2">
  <diagram name="Trang-1" id="hPvKzBz1b78GgGM9Wtxj">
    <mxGraphModel grid="1" page="1" gridSize="10" guides="1" tooltips="1" connect="1" arrows="1" fold="1" pageScale="1" pageWidth="827" pageHeight="1169" math="0" shadow="0">
      <root>
        <mxCell id="0" />
        <mxCell id="1" parent="0" />
        <mxCell id="7KAacbBbOtTTsOqDtR2a-72" value="" style="rounded=0;whiteSpace=wrap;html=1;fontStyle=1" vertex="1" parent="1">
          <mxGeometry x="-1910" y="-1150" width="3080" height="1680" as="geometry" />
        </mxCell>
        <mxCell id="szL0_lKkmVnAjkS_TGyX-1" value="" style="rounded=0;whiteSpace=wrap;html=1;fontStyle=1" vertex="1" parent="1">
          <mxGeometry x="-40" y="-10" width="780" height="520" as="geometry" />
        </mxCell>
        <mxCell id="szL0_lKkmVnAjkS_TGyX-2" value="Admin" style="shape=umlActor;verticalLabelPosition=bottom;verticalAlign=top;html=1;outlineConnect=0;fontStyle=1" vertex="1" parent="1">
          <mxGeometry x="-130" y="130" width="30" height="60" as="geometry" />
        </mxCell>
        <mxCell id="7KAacbBbOtTTsOqDtR2a-1" value="" style="rounded=0;whiteSpace=wrap;html=1;fontStyle=1" vertex="1" parent="1">
          <mxGeometry x="-40" y="-1020" width="880" height="880" as="geometry" />
        </mxCell>
        <mxCell id="7KAacbBbOtTTsOqDtR2a-34" style="rounded=0;orthogonalLoop=1;jettySize=auto;html=1;fontStyle=1" edge="1" parent="1" source="7KAacbBbOtTTsOqDtR2a-2" target="7KAacbBbOtTTsOqDtR2a-8">
          <mxGeometry relative="1" as="geometry" />
        </mxCell>
        <mxCell id="7KAacbBbOtTTsOqDtR2a-35" style="rounded=0;orthogonalLoop=1;jettySize=auto;html=1;entryX=0;entryY=0.5;entryDx=0;entryDy=0;fontStyle=1" edge="1" parent="1" source="7KAacbBbOtTTsOqDtR2a-2" target="7KAacbBbOtTTsOqDtR2a-11">
          <mxGeometry relative="1" as="geometry" />
        </mxCell>
        <mxCell id="7KAacbBbOtTTsOqDtR2a-36" style="rounded=0;orthogonalLoop=1;jettySize=auto;html=1;entryX=0;entryY=0;entryDx=0;entryDy=0;fontStyle=1" edge="1" parent="1" source="7KAacbBbOtTTsOqDtR2a-2" target="7KAacbBbOtTTsOqDtR2a-13">
          <mxGeometry relative="1" as="geometry" />
        </mxCell>
        <mxCell id="7KAacbBbOtTTsOqDtR2a-37" style="rounded=0;orthogonalLoop=1;jettySize=auto;html=1;entryX=0;entryY=0;entryDx=0;entryDy=0;fontStyle=1" edge="1" parent="1" source="7KAacbBbOtTTsOqDtR2a-2" target="7KAacbBbOtTTsOqDtR2a-14">
          <mxGeometry relative="1" as="geometry" />
        </mxCell>
        <mxCell id="7KAacbBbOtTTsOqDtR2a-2" value="Khách hàng mới" style="shape=umlActor;verticalLabelPosition=bottom;verticalAlign=top;html=1;outlineConnect=0;fontStyle=1" vertex="1" parent="1">
          <mxGeometry x="-140" y="-870" width="30" height="60" as="geometry" />
        </mxCell>
        <mxCell id="7KAacbBbOtTTsOqDtR2a-3" value="Trang mua hàng online" style="text;html=1;align=center;verticalAlign=middle;resizable=0;points=[];autosize=1;strokeColor=none;fillColor=none;fontStyle=1" vertex="1" parent="1">
          <mxGeometry x="300" y="-1020" width="150" height="30" as="geometry" />
        </mxCell>
        <mxCell id="7KAacbBbOtTTsOqDtR2a-4" value="Khách hàng" style="shape=umlActor;verticalLabelPosition=bottom;verticalAlign=top;html=1;outlineConnect=0;fontStyle=1" vertex="1" parent="1">
          <mxGeometry x="-260" y="-750" width="30" height="60" as="geometry" />
        </mxCell>
        <mxCell id="7KAacbBbOtTTsOqDtR2a-40" style="rounded=0;orthogonalLoop=1;jettySize=auto;html=1;fontStyle=1" edge="1" parent="1" source="7KAacbBbOtTTsOqDtR2a-5" target="7KAacbBbOtTTsOqDtR2a-8">
          <mxGeometry relative="1" as="geometry" />
        </mxCell>
        <mxCell id="7KAacbBbOtTTsOqDtR2a-41" style="rounded=0;orthogonalLoop=1;jettySize=auto;html=1;fontStyle=1" edge="1" parent="1" source="7KAacbBbOtTTsOqDtR2a-5" target="7KAacbBbOtTTsOqDtR2a-11">
          <mxGeometry relative="1" as="geometry" />
        </mxCell>
        <mxCell id="7KAacbBbOtTTsOqDtR2a-42" style="edgeStyle=orthogonalEdgeStyle;rounded=0;orthogonalLoop=1;jettySize=auto;html=1;fontStyle=1" edge="1" parent="1" source="7KAacbBbOtTTsOqDtR2a-5" target="7KAacbBbOtTTsOqDtR2a-13">
          <mxGeometry relative="1" as="geometry" />
        </mxCell>
        <mxCell id="7KAacbBbOtTTsOqDtR2a-43" style="rounded=0;orthogonalLoop=1;jettySize=auto;html=1;entryX=0;entryY=0.5;entryDx=0;entryDy=0;fontStyle=1" edge="1" parent="1" source="7KAacbBbOtTTsOqDtR2a-5" target="7KAacbBbOtTTsOqDtR2a-14">
          <mxGeometry relative="1" as="geometry" />
        </mxCell>
        <mxCell id="7KAacbBbOtTTsOqDtR2a-55" style="rounded=0;orthogonalLoop=1;jettySize=auto;html=1;fontStyle=1" edge="1" parent="1" source="7KAacbBbOtTTsOqDtR2a-5" target="7KAacbBbOtTTsOqDtR2a-23">
          <mxGeometry relative="1" as="geometry" />
        </mxCell>
        <mxCell id="7KAacbBbOtTTsOqDtR2a-5" value="Khách hàng quen thuộc" style="shape=umlActor;verticalLabelPosition=bottom;verticalAlign=top;html=1;outlineConnect=0;fontStyle=1" vertex="1" parent="1">
          <mxGeometry x="-140" y="-620" width="30" height="60" as="geometry" />
        </mxCell>
        <mxCell id="szL0_lKkmVnAjkS_TGyX-7" value="Quản lí phân quyền" style="ellipse;whiteSpace=wrap;html=1;fontStyle=1" vertex="1" parent="1">
          <mxGeometry x="10" y="360" width="120" height="30" as="geometry" />
        </mxCell>
        <mxCell id="7KAacbBbOtTTsOqDtR2a-7" value="Đăng ký" style="ellipse;whiteSpace=wrap;html=1;align=center;fontStyle=1" vertex="1" parent="1">
          <mxGeometry y="-1004" width="100" height="40" as="geometry" />
        </mxCell>
        <mxCell id="7KAacbBbOtTTsOqDtR2a-8" value="Xem DS sản phẩm" style="ellipse;whiteSpace=wrap;html=1;align=center;fontStyle=1" vertex="1" parent="1">
          <mxGeometry x="-10" y="-910" width="140" height="40" as="geometry" />
        </mxCell>
        <mxCell id="7KAacbBbOtTTsOqDtR2a-9" value="Xem chi tiết" style="ellipse;whiteSpace=wrap;html=1;align=center;fontStyle=1" vertex="1" parent="1">
          <mxGeometry x="330" y="-960" width="110" height="40" as="geometry" />
        </mxCell>
        <mxCell id="7KAacbBbOtTTsOqDtR2a-10" value="Feedback" style="ellipse;whiteSpace=wrap;html=1;align=center;fontStyle=1" vertex="1" parent="1">
          <mxGeometry x="530" y="-950" width="100" height="30" as="geometry" />
        </mxCell>
        <mxCell id="7KAacbBbOtTTsOqDtR2a-11" value="Xem Ds mã coupon" style="ellipse;whiteSpace=wrap;html=1;align=center;fontStyle=1" vertex="1" parent="1">
          <mxGeometry x="30" y="-830" width="130" height="40" as="geometry" />
        </mxCell>
        <mxCell id="7KAacbBbOtTTsOqDtR2a-12" value="Thêm giỏ hàng" style="ellipse;whiteSpace=wrap;html=1;align=center;fontStyle=1" vertex="1" parent="1">
          <mxGeometry x="335" y="-820" width="100" height="40" as="geometry" />
        </mxCell>
        <mxCell id="7KAacbBbOtTTsOqDtR2a-14" value="Xem giỏ hàng" style="ellipse;whiteSpace=wrap;html=1;align=center;fontStyle=1" vertex="1" parent="1">
          <mxGeometry x="20" y="-690" width="100" height="30" as="geometry" />
        </mxCell>
        <mxCell id="7KAacbBbOtTTsOqDtR2a-15" value="Cập nhật giỏ hàng" style="ellipse;whiteSpace=wrap;html=1;align=center;fontStyle=1" vertex="1" parent="1">
          <mxGeometry x="294" y="-700" width="120" height="40" as="geometry" />
        </mxCell>
        <mxCell id="7KAacbBbOtTTsOqDtR2a-16" value="Đặt hàng" style="ellipse;whiteSpace=wrap;html=1;align=center;fontStyle=1" vertex="1" parent="1">
          <mxGeometry x="20" y="-600" width="100" height="30" as="geometry" />
        </mxCell>
        <mxCell id="7KAacbBbOtTTsOqDtR2a-17" value="Kiểm tra đăng nhập" style="ellipse;whiteSpace=wrap;html=1;align=center;fontStyle=1" vertex="1" parent="1">
          <mxGeometry x="210" y="-640" width="120" height="30" as="geometry" />
        </mxCell>
        <mxCell id="szL0_lKkmVnAjkS_TGyX-10" value="Xóa nhân viên" style="ellipse;whiteSpace=wrap;html=1;fontStyle=1" vertex="1" parent="1">
          <mxGeometry x="250" y="250" width="120" height="30" as="geometry" />
        </mxCell>
        <mxCell id="szL0_lKkmVnAjkS_TGyX-11" value="Tạo quyền" style="ellipse;whiteSpace=wrap;html=1;fontStyle=1" vertex="1" parent="1">
          <mxGeometry x="240" y="350" width="120" height="30" as="geometry" />
        </mxCell>
        <mxCell id="szL0_lKkmVnAjkS_TGyX-12" value="Phân quyền" style="ellipse;whiteSpace=wrap;html=1;fontStyle=1" vertex="1" parent="1">
          <mxGeometry x="540" y="90" width="120" height="30" as="geometry" />
        </mxCell>
        <mxCell id="szL0_lKkmVnAjkS_TGyX-26" value="&amp;lt;&amp;lt;extend&amp;gt;&amp;gt;" style="html=1;verticalAlign=bottom;labelBackgroundColor=none;endArrow=open;endFill=0;dashed=1;rounded=0;entryX=1;entryY=0.5;entryDx=0;entryDy=0;exitX=0;exitY=0.5;exitDx=0;exitDy=0;fontStyle=1" edge="1" parent="1" source="szL0_lKkmVnAjkS_TGyX-11" target="szL0_lKkmVnAjkS_TGyX-7">
          <mxGeometry width="160" relative="1" as="geometry">
            <mxPoint x="358" y="426" as="sourcePoint" />
            <mxPoint x="230" y="310" as="targetPoint" />
          </mxGeometry>
        </mxCell>
        <mxCell id="szL0_lKkmVnAjkS_TGyX-19" value="&amp;lt;&amp;lt;extend&amp;gt;&amp;gt;" style="html=1;verticalAlign=bottom;labelBackgroundColor=none;endArrow=open;endFill=0;dashed=1;rounded=0;entryX=1;entryY=0.5;entryDx=0;entryDy=0;exitX=0.069;exitY=0.737;exitDx=0;exitDy=0;exitPerimeter=0;fontStyle=1" edge="1" parent="1" source="szL0_lKkmVnAjkS_TGyX-9" target="szL0_lKkmVnAjkS_TGyX-16">
          <mxGeometry width="160" relative="1" as="geometry">
            <mxPoint x="330" y="230" as="sourcePoint" />
            <mxPoint x="490" y="230" as="targetPoint" />
          </mxGeometry>
        </mxCell>
        <mxCell id="7KAacbBbOtTTsOqDtR2a-18" value="Nhập thông tin nhận hàng" style="ellipse;whiteSpace=wrap;html=1;align=center;fontStyle=1" vertex="1" parent="1">
          <mxGeometry x="210" y="-570" width="140" height="50" as="geometry" />
        </mxCell>
        <mxCell id="szL0_lKkmVnAjkS_TGyX-13" value="Xóa quyền" style="ellipse;whiteSpace=wrap;html=1;fontStyle=1" vertex="1" parent="1">
          <mxGeometry x="240" y="450" width="120" height="30" as="geometry" />
        </mxCell>
        <mxCell id="szL0_lKkmVnAjkS_TGyX-14" value="Cập nhật quyền" style="ellipse;whiteSpace=wrap;html=1;fontStyle=1" vertex="1" parent="1">
          <mxGeometry x="240" y="390" width="120" height="30" as="geometry" />
        </mxCell>
        <mxCell id="7KAacbBbOtTTsOqDtR2a-23" value="Đăng nhập" style="ellipse;whiteSpace=wrap;html=1;align=center;fontStyle=1" vertex="1" parent="1">
          <mxGeometry x="-5" y="-420" width="105" height="40" as="geometry" />
        </mxCell>
        <mxCell id="7KAacbBbOtTTsOqDtR2a-22" value="Áp dụng Coupon" style="ellipse;whiteSpace=wrap;html=1;align=center;fontStyle=1" vertex="1" parent="1">
          <mxGeometry x="-5" y="-510" width="130" height="40" as="geometry" />
        </mxCell>
        <mxCell id="7KAacbBbOtTTsOqDtR2a-24" value="Tư vấn khách hàng" style="ellipse;whiteSpace=wrap;html=1;align=center;fontStyle=1" vertex="1" parent="1">
          <mxGeometry x="240" y="-450" width="130" height="40" as="geometry" />
        </mxCell>
        <mxCell id="7KAacbBbOtTTsOqDtR2a-19" value="Hình thức thanh toán" style="ellipse;whiteSpace=wrap;html=1;align=center;fontStyle=1" vertex="1" parent="1">
          <mxGeometry x="450" y="-565" width="130" height="40" as="geometry" />
        </mxCell>
        <mxCell id="7KAacbBbOtTTsOqDtR2a-25" value="Quản lý tài khoản" style="ellipse;whiteSpace=wrap;html=1;align=center;fontStyle=1" vertex="1" parent="1">
          <mxGeometry x="240" y="-370" width="130" height="40" as="geometry" />
        </mxCell>
        <mxCell id="7KAacbBbOtTTsOqDtR2a-13" value="Tra cứu" style="ellipse;whiteSpace=wrap;html=1;align=center;fontStyle=1" vertex="1" parent="1">
          <mxGeometry x="40" y="-755" width="90" height="30" as="geometry" />
        </mxCell>
        <mxCell id="7KAacbBbOtTTsOqDtR2a-26" value="Xem đơn hàng" style="ellipse;whiteSpace=wrap;html=1;align=center;fontStyle=1" vertex="1" parent="1">
          <mxGeometry x="240" y="-290" width="130" height="40" as="geometry" />
        </mxCell>
        <mxCell id="7KAacbBbOtTTsOqDtR2a-20" value="Tiền mặt" style="ellipse;whiteSpace=wrap;html=1;align=center;fontStyle=1" vertex="1" parent="1">
          <mxGeometry x="640" y="-604" width="90" height="40" as="geometry" />
        </mxCell>
        <mxCell id="7KAacbBbOtTTsOqDtR2a-27" value="Thay đổi mật khẩu" style="ellipse;whiteSpace=wrap;html=1;align=center;fontStyle=1" vertex="1" parent="1">
          <mxGeometry x="480" y="-420" width="130" height="40" as="geometry" />
        </mxCell>
        <mxCell id="szL0_lKkmVnAjkS_TGyX-22" value="&amp;lt;&amp;lt;extend&amp;gt;&amp;gt;" style="html=1;verticalAlign=bottom;labelBackgroundColor=none;endArrow=open;endFill=0;dashed=1;rounded=0;entryX=1;entryY=0.5;entryDx=0;entryDy=0;exitX=0;exitY=0.5;exitDx=0;exitDy=0;fontStyle=1" edge="1" parent="1" source="szL0_lKkmVnAjkS_TGyX-15" target="szL0_lKkmVnAjkS_TGyX-16">
          <mxGeometry width="160" relative="1" as="geometry">
            <mxPoint x="340" y="180" as="sourcePoint" />
            <mxPoint x="220" y="215" as="targetPoint" />
          </mxGeometry>
        </mxCell>
        <mxCell id="7KAacbBbOtTTsOqDtR2a-28" value="Thay đổi thông tin cá nhân" style="ellipse;whiteSpace=wrap;html=1;align=center;fontStyle=1" vertex="1" parent="1">
          <mxGeometry x="480" y="-350" width="140" height="50" as="geometry" />
        </mxCell>
        <mxCell id="7KAacbBbOtTTsOqDtR2a-21" value="Ví điện tử - thẻ" style="ellipse;whiteSpace=wrap;html=1;align=center;fontStyle=1" vertex="1" parent="1">
          <mxGeometry x="620" y="-500" width="130" height="40" as="geometry" />
        </mxCell>
        <mxCell id="7KAacbBbOtTTsOqDtR2a-29" value="Hủy đơn hàng" style="ellipse;whiteSpace=wrap;html=1;align=center;fontStyle=1" vertex="1" parent="1">
          <mxGeometry x="480" y="-270" width="130" height="40" as="geometry" />
        </mxCell>
        <mxCell id="szL0_lKkmVnAjkS_TGyX-31" value="&amp;lt;&amp;lt;include&amp;gt;&amp;gt;" style="html=1;verticalAlign=bottom;labelBackgroundColor=none;endArrow=open;endFill=0;dashed=1;rounded=0;exitX=1;exitY=0.5;exitDx=0;exitDy=0;entryX=0.098;entryY=0.704;entryDx=0;entryDy=0;entryPerimeter=0;fontStyle=1" edge="1" parent="1" source="szL0_lKkmVnAjkS_TGyX-8" target="szL0_lKkmVnAjkS_TGyX-12">
          <mxGeometry width="160" relative="1" as="geometry">
            <mxPoint x="330" y="230" as="sourcePoint" />
            <mxPoint x="490" y="230" as="targetPoint" />
          </mxGeometry>
        </mxCell>
        <mxCell id="7KAacbBbOtTTsOqDtR2a-30" value="Xem chi tiết đơn hàng" style="ellipse;whiteSpace=wrap;html=1;align=center;fontStyle=1" vertex="1" parent="1">
          <mxGeometry x="480" y="-200" width="130" height="40" as="geometry" />
        </mxCell>
        <mxCell id="szL0_lKkmVnAjkS_TGyX-21" value="&amp;lt;&amp;lt;extend&amp;gt;&amp;gt;" style="html=1;verticalAlign=bottom;labelBackgroundColor=none;endArrow=open;endFill=0;dashed=1;rounded=0;entryX=1;entryY=0.5;entryDx=0;entryDy=0;exitX=0;exitY=0.5;exitDx=0;exitDy=0;fontStyle=1" edge="1" parent="1" source="szL0_lKkmVnAjkS_TGyX-8" target="szL0_lKkmVnAjkS_TGyX-16">
          <mxGeometry width="160" relative="1" as="geometry">
            <mxPoint x="398" y="110" as="sourcePoint" />
            <mxPoint x="270" y="198" as="targetPoint" />
          </mxGeometry>
        </mxCell>
        <mxCell id="szL0_lKkmVnAjkS_TGyX-33" value="" style="endArrow=classic;html=1;rounded=0;entryX=0;entryY=0.5;entryDx=0;entryDy=0;fontStyle=1" edge="1" parent="1" target="szL0_lKkmVnAjkS_TGyX-16">
          <mxGeometry width="50" height="50" relative="1" as="geometry">
            <mxPoint x="-100" y="150" as="sourcePoint" />
            <mxPoint x="-50" y="100" as="targetPoint" />
          </mxGeometry>
        </mxCell>
        <mxCell id="szL0_lKkmVnAjkS_TGyX-29" value="&amp;lt;&amp;lt;extend&amp;gt;&amp;gt;" style="html=1;verticalAlign=bottom;labelBackgroundColor=none;endArrow=open;endFill=0;dashed=1;rounded=0;entryX=1;entryY=0.5;entryDx=0;entryDy=0;fontStyle=1" edge="1" parent="1" source="szL0_lKkmVnAjkS_TGyX-12" target="szL0_lKkmVnAjkS_TGyX-15">
          <mxGeometry width="160" relative="1" as="geometry">
            <mxPoint x="688" y="296" as="sourcePoint" />
            <mxPoint x="560" y="180" as="targetPoint" />
          </mxGeometry>
        </mxCell>
        <mxCell id="szL0_lKkmVnAjkS_TGyX-34" value="&amp;lt;&amp;lt;extend&amp;gt;&amp;gt;" style="html=1;verticalAlign=bottom;labelBackgroundColor=none;endArrow=open;endFill=0;dashed=1;rounded=0;entryX=1;entryY=0.3333333333333333;entryDx=0;entryDy=0;entryPerimeter=0;fontStyle=1" edge="1" parent="1" source="szL0_lKkmVnAjkS_TGyX-7" target="szL0_lKkmVnAjkS_TGyX-2">
          <mxGeometry width="160" relative="1" as="geometry">
            <mxPoint x="48" y="306" as="sourcePoint" />
            <mxPoint x="-80" y="190" as="targetPoint" />
          </mxGeometry>
        </mxCell>
        <mxCell id="szL0_lKkmVnAjkS_TGyX-27" value="&amp;lt;&amp;lt;extend&amp;gt;&amp;gt;" style="html=1;verticalAlign=bottom;labelBackgroundColor=none;endArrow=open;endFill=0;dashed=1;rounded=0;exitX=0;exitY=0.5;exitDx=0;exitDy=0;fontStyle=1" edge="1" parent="1" source="szL0_lKkmVnAjkS_TGyX-14">
          <mxGeometry width="160" relative="1" as="geometry">
            <mxPoint x="358" y="486" as="sourcePoint" />
            <mxPoint x="130" y="380" as="targetPoint" />
          </mxGeometry>
        </mxCell>
        <mxCell id="szL0_lKkmVnAjkS_TGyX-15" value="Cập nhật nhân viên" style="ellipse;whiteSpace=wrap;html=1;fontStyle=1" vertex="1" parent="1">
          <mxGeometry x="260" y="180" width="120" height="30" as="geometry" />
        </mxCell>
        <mxCell id="szL0_lKkmVnAjkS_TGyX-16" value="Quản lý người dùng" style="ellipse;whiteSpace=wrap;html=1;fontStyle=1" vertex="1" parent="1">
          <mxGeometry x="20" y="145" width="120" height="30" as="geometry" />
        </mxCell>
        <mxCell id="szL0_lKkmVnAjkS_TGyX-28" value="&amp;lt;&amp;lt;extend&amp;gt;&amp;gt;" style="html=1;verticalAlign=bottom;labelBackgroundColor=none;endArrow=open;endFill=0;dashed=1;rounded=0;entryX=0.93;entryY=0.77;entryDx=0;entryDy=0;exitX=0;exitY=0.5;exitDx=0;exitDy=0;entryPerimeter=0;fontStyle=1" edge="1" parent="1" source="szL0_lKkmVnAjkS_TGyX-13" target="szL0_lKkmVnAjkS_TGyX-7">
          <mxGeometry width="160" relative="1" as="geometry">
            <mxPoint x="438" y="546" as="sourcePoint" />
            <mxPoint x="310" y="430" as="targetPoint" />
          </mxGeometry>
        </mxCell>
        <mxCell id="szL0_lKkmVnAjkS_TGyX-8" value="Thêm nhân viên" style="ellipse;whiteSpace=wrap;html=1;fontStyle=1" vertex="1" parent="1">
          <mxGeometry x="260" y="110" width="120" height="30" as="geometry" />
        </mxCell>
        <mxCell id="szL0_lKkmVnAjkS_TGyX-9" value="Tìm kiếm người dùng" style="ellipse;whiteSpace=wrap;html=1;fontStyle=1" vertex="1" parent="1">
          <mxGeometry x="260" y="50" width="120" height="30" as="geometry" />
        </mxCell>
        <mxCell id="szL0_lKkmVnAjkS_TGyX-25" value="&amp;lt;&amp;lt;extend&amp;gt;&amp;gt;" style="html=1;verticalAlign=bottom;labelBackgroundColor=none;endArrow=open;endFill=0;dashed=1;rounded=0;entryX=1;entryY=0.5;entryDx=0;entryDy=0;exitX=0;exitY=1;exitDx=0;exitDy=0;fontStyle=1" edge="1" parent="1" source="szL0_lKkmVnAjkS_TGyX-10" target="szL0_lKkmVnAjkS_TGyX-16">
          <mxGeometry width="160" relative="1" as="geometry">
            <mxPoint x="270" y="200" as="sourcePoint" />
            <mxPoint x="150" y="235" as="targetPoint" />
          </mxGeometry>
        </mxCell>
        <mxCell id="7KAacbBbOtTTsOqDtR2a-31" value="Extends" style="endArrow=block;endSize=16;endFill=0;html=1;rounded=0;entryX=1;entryY=0.5;entryDx=0;entryDy=0;fontStyle=1" edge="1" parent="1" source="7KAacbBbOtTTsOqDtR2a-9" target="7KAacbBbOtTTsOqDtR2a-8">
          <mxGeometry width="160" relative="1" as="geometry">
            <mxPoint x="930" y="-640" as="sourcePoint" />
            <mxPoint x="1090" y="-640" as="targetPoint" />
          </mxGeometry>
        </mxCell>
        <mxCell id="7KAacbBbOtTTsOqDtR2a-33" style="rounded=0;orthogonalLoop=1;jettySize=auto;html=1;fontStyle=1" edge="1" parent="1" source="7KAacbBbOtTTsOqDtR2a-2" target="7KAacbBbOtTTsOqDtR2a-7">
          <mxGeometry relative="1" as="geometry" />
        </mxCell>
        <mxCell id="7KAacbBbOtTTsOqDtR2a-38" value="" style="endArrow=block;endSize=16;endFill=0;html=1;rounded=0;fontStyle=1" edge="1" parent="1">
          <mxGeometry width="160" relative="1" as="geometry">
            <mxPoint x="-150" y="-620" as="sourcePoint" />
            <mxPoint x="-210" y="-660" as="targetPoint" />
          </mxGeometry>
        </mxCell>
        <mxCell id="7KAacbBbOtTTsOqDtR2a-39" value="" style="endArrow=block;endSize=16;endFill=0;html=1;rounded=0;fontStyle=1" edge="1" parent="1">
          <mxGeometry width="160" relative="1" as="geometry">
            <mxPoint x="-180" y="-780" as="sourcePoint" />
            <mxPoint x="-220" y="-750" as="targetPoint" />
          </mxGeometry>
        </mxCell>
        <mxCell id="7KAacbBbOtTTsOqDtR2a-44" value="Extends" style="endArrow=block;endSize=16;endFill=0;html=1;rounded=0;fontStyle=1" edge="1" parent="1" source="7KAacbBbOtTTsOqDtR2a-10" target="7KAacbBbOtTTsOqDtR2a-9">
          <mxGeometry width="160" relative="1" as="geometry">
            <mxPoint x="806" y="-850" as="sourcePoint" />
            <mxPoint x="600" y="-809" as="targetPoint" />
          </mxGeometry>
        </mxCell>
        <mxCell id="7KAacbBbOtTTsOqDtR2a-45" value="Extends" style="endArrow=block;endSize=16;endFill=0;html=1;rounded=0;fontStyle=1" edge="1" parent="1" source="7KAacbBbOtTTsOqDtR2a-12" target="7KAacbBbOtTTsOqDtR2a-9">
          <mxGeometry width="160" relative="1" as="geometry">
            <mxPoint x="666" y="-890" as="sourcePoint" />
            <mxPoint x="460" y="-849" as="targetPoint" />
          </mxGeometry>
        </mxCell>
        <mxCell id="7KAacbBbOtTTsOqDtR2a-46" value="Extends" style="endArrow=block;endSize=16;endFill=0;html=1;rounded=0;exitX=0;exitY=0.5;exitDx=0;exitDy=0;fontStyle=1" edge="1" parent="1" source="7KAacbBbOtTTsOqDtR2a-12" target="7KAacbBbOtTTsOqDtR2a-8">
          <mxGeometry width="160" relative="1" as="geometry">
            <mxPoint x="456" y="-820" as="sourcePoint" />
            <mxPoint x="250" y="-779" as="targetPoint" />
          </mxGeometry>
        </mxCell>
        <mxCell id="7KAacbBbOtTTsOqDtR2a-47" value="Xem chi tiết" style="ellipse;whiteSpace=wrap;html=1;align=center;fontStyle=1" vertex="1" parent="1">
          <mxGeometry x="200" y="-770" width="100" height="40" as="geometry" />
        </mxCell>
        <mxCell id="7KAacbBbOtTTsOqDtR2a-48" value="Extends" style="endArrow=block;endSize=16;endFill=0;html=1;rounded=0;fontStyle=1" edge="1" parent="1" source="7KAacbBbOtTTsOqDtR2a-47" target="7KAacbBbOtTTsOqDtR2a-11">
          <mxGeometry width="160" relative="1" as="geometry">
            <mxPoint x="389" y="-715" as="sourcePoint" />
            <mxPoint x="160" y="-790" as="targetPoint" />
          </mxGeometry>
        </mxCell>
        <mxCell id="7KAacbBbOtTTsOqDtR2a-49" value="Extends" style="endArrow=block;endSize=16;endFill=0;html=1;rounded=0;fontStyle=1" edge="1" parent="1" source="7KAacbBbOtTTsOqDtR2a-15" target="7KAacbBbOtTTsOqDtR2a-14">
          <mxGeometry width="160" relative="1" as="geometry">
            <mxPoint x="399" y="-615" as="sourcePoint" />
            <mxPoint x="170" y="-690" as="targetPoint" />
          </mxGeometry>
        </mxCell>
        <mxCell id="7KAacbBbOtTTsOqDtR2a-50" value="Extends" style="endArrow=block;endSize=16;endFill=0;html=1;rounded=0;fontStyle=1" edge="1" parent="1" source="7KAacbBbOtTTsOqDtR2a-16" target="7KAacbBbOtTTsOqDtR2a-14">
          <mxGeometry width="160" relative="1" as="geometry">
            <mxPoint x="199" y="-565" as="sourcePoint" />
            <mxPoint x="-30" y="-640" as="targetPoint" />
          </mxGeometry>
        </mxCell>
        <mxCell id="7KAacbBbOtTTsOqDtR2a-51" value="Extends" style="endArrow=block;endSize=16;endFill=0;html=1;rounded=0;entryX=0.5;entryY=1;entryDx=0;entryDy=0;fontStyle=1" edge="1" parent="1" source="7KAacbBbOtTTsOqDtR2a-22" target="7KAacbBbOtTTsOqDtR2a-16">
          <mxGeometry width="160" relative="1" as="geometry">
            <mxPoint x="-1" y="-485" as="sourcePoint" />
            <mxPoint x="-230" y="-560" as="targetPoint" />
          </mxGeometry>
        </mxCell>
        <mxCell id="7KAacbBbOtTTsOqDtR2a-52" value="Extends" style="endArrow=block;endSize=16;endFill=0;html=1;rounded=0;fontStyle=1" edge="1" parent="1" source="7KAacbBbOtTTsOqDtR2a-24" target="7KAacbBbOtTTsOqDtR2a-23">
          <mxGeometry width="160" relative="1" as="geometry">
            <mxPoint x="509" y="-355" as="sourcePoint" />
            <mxPoint x="280" y="-430" as="targetPoint" />
          </mxGeometry>
        </mxCell>
        <mxCell id="7KAacbBbOtTTsOqDtR2a-53" value="Extends" style="endArrow=block;endSize=16;endFill=0;html=1;rounded=0;fontStyle=1" edge="1" parent="1" source="7KAacbBbOtTTsOqDtR2a-25" target="7KAacbBbOtTTsOqDtR2a-23">
          <mxGeometry width="160" relative="1" as="geometry">
            <mxPoint x="349" y="-265" as="sourcePoint" />
            <mxPoint x="120" y="-340" as="targetPoint" />
          </mxGeometry>
        </mxCell>
        <mxCell id="7KAacbBbOtTTsOqDtR2a-54" value="Extends" style="endArrow=block;endSize=16;endFill=0;html=1;rounded=0;fontStyle=1" edge="1" parent="1" source="7KAacbBbOtTTsOqDtR2a-26" target="7KAacbBbOtTTsOqDtR2a-23">
          <mxGeometry width="160" relative="1" as="geometry">
            <mxPoint x="349" y="-195" as="sourcePoint" />
            <mxPoint x="120" y="-270" as="targetPoint" />
          </mxGeometry>
        </mxCell>
        <mxCell id="7KAacbBbOtTTsOqDtR2a-56" value="" style="endArrow=block;endSize=16;endFill=0;html=1;rounded=0;fontStyle=1" edge="1" parent="1" source="7KAacbBbOtTTsOqDtR2a-20" target="7KAacbBbOtTTsOqDtR2a-19">
          <mxGeometry x="0.0551" y="47" width="160" relative="1" as="geometry">
            <mxPoint x="1039" y="-575" as="sourcePoint" />
            <mxPoint x="810" y="-650" as="targetPoint" />
            <Array as="points">
              <mxPoint x="685" y="-540" />
            </Array>
            <mxPoint as="offset" />
          </mxGeometry>
        </mxCell>
        <mxCell id="7KAacbBbOtTTsOqDtR2a-57" value="" style="endArrow=block;endSize=16;endFill=0;html=1;rounded=0;entryX=1;entryY=0.5;entryDx=0;entryDy=0;fontStyle=1" edge="1" parent="1" source="7KAacbBbOtTTsOqDtR2a-21" target="7KAacbBbOtTTsOqDtR2a-19">
          <mxGeometry x="0.0898" y="28" width="160" relative="1" as="geometry">
            <mxPoint x="969" y="-465" as="sourcePoint" />
            <mxPoint x="740" y="-540" as="targetPoint" />
            <Array as="points">
              <mxPoint x="685" y="-540" />
            </Array>
            <mxPoint as="offset" />
          </mxGeometry>
        </mxCell>
        <mxCell id="L8F_WE0kTv24C7yc9nqN-1" value="Quản lý bán hàng" style="swimlane;whiteSpace=wrap;html=1;fontStyle=1" vertex="1" parent="1">
          <mxGeometry x="-1610" y="-670" width="1060" height="750" as="geometry" />
        </mxCell>
        <mxCell id="L8F_WE0kTv24C7yc9nqN-5" value="&lt;span style=&quot;font-weight: normal;&quot;&gt;Xem danh sách khách hàng&lt;/span&gt;" style="ellipse;whiteSpace=wrap;html=1;fontStyle=1" vertex="1" parent="L8F_WE0kTv24C7yc9nqN-1">
          <mxGeometry x="80" y="100" width="120" height="80" as="geometry" />
        </mxCell>
        <mxCell id="L8F_WE0kTv24C7yc9nqN-15" value="Xem danh sách đơn hàng chưa xác nhận" style="ellipse;whiteSpace=wrap;html=1;" vertex="1" parent="L8F_WE0kTv24C7yc9nqN-1">
          <mxGeometry x="370" y="220" width="120" height="80" as="geometry" />
        </mxCell>
        <mxCell id="L8F_WE0kTv24C7yc9nqN-13" value="Xem danh sách đơn hàng đã xác nhận , đang vận chuyển" style="ellipse;whiteSpace=wrap;html=1;" vertex="1" parent="L8F_WE0kTv24C7yc9nqN-1">
          <mxGeometry x="360" y="330" width="120" height="80" as="geometry" />
        </mxCell>
        <mxCell id="L8F_WE0kTv24C7yc9nqN-10" value="Xem danh sách đơn hàng đã giao" style="ellipse;whiteSpace=wrap;html=1;" vertex="1" parent="L8F_WE0kTv24C7yc9nqN-1">
          <mxGeometry x="380" y="425" width="120" height="80" as="geometry" />
        </mxCell>
        <mxCell id="L8F_WE0kTv24C7yc9nqN-9" value="Quản lý các chương trình&amp;nbsp;" style="ellipse;whiteSpace=wrap;html=1;" vertex="1" parent="L8F_WE0kTv24C7yc9nqN-1">
          <mxGeometry x="140" y="650" width="120" height="80" as="geometry" />
        </mxCell>
        <mxCell id="L8F_WE0kTv24C7yc9nqN-12" value="Quản lý danh sách mã giảm giá - Coupon" style="ellipse;whiteSpace=wrap;html=1;" vertex="1" parent="L8F_WE0kTv24C7yc9nqN-1">
          <mxGeometry x="390" y="655" width="120" height="80" as="geometry" />
        </mxCell>
        <mxCell id="L8F_WE0kTv24C7yc9nqN-17" value="Quản lý danh sách sản phẩm khuyến mãi" style="ellipse;whiteSpace=wrap;html=1;" vertex="1" parent="L8F_WE0kTv24C7yc9nqN-1">
          <mxGeometry x="380" y="545" width="120" height="80" as="geometry" />
        </mxCell>
        <mxCell id="L8F_WE0kTv24C7yc9nqN-16" value="Thêm sản phẩm khuyến mãi&lt;span style=&quot;white-space: pre;&quot;&gt;&#x9;&lt;/span&gt;" style="ellipse;whiteSpace=wrap;html=1;" vertex="1" parent="L8F_WE0kTv24C7yc9nqN-1">
          <mxGeometry x="840" y="370" width="120" height="80" as="geometry" />
        </mxCell>
        <mxCell id="L8F_WE0kTv24C7yc9nqN-11" value="Thống kê" style="ellipse;whiteSpace=wrap;html=1;" vertex="1" parent="L8F_WE0kTv24C7yc9nqN-1">
          <mxGeometry x="640" y="370" width="120" height="80" as="geometry" />
        </mxCell>
        <mxCell id="L8F_WE0kTv24C7yc9nqN-14" value="Cập nhật đơn hàng" style="ellipse;whiteSpace=wrap;html=1;" vertex="1" parent="L8F_WE0kTv24C7yc9nqN-1">
          <mxGeometry x="850" y="187" width="120" height="80" as="geometry" />
        </mxCell>
        <mxCell id="L8F_WE0kTv24C7yc9nqN-19" value="Xóa sản phẩm" style="ellipse;whiteSpace=wrap;html=1;" vertex="1" parent="L8F_WE0kTv24C7yc9nqN-1">
          <mxGeometry x="420" y="120" width="120" height="80" as="geometry" />
        </mxCell>
        <mxCell id="L8F_WE0kTv24C7yc9nqN-20" value="Xác nhận đơn hàng" style="ellipse;whiteSpace=wrap;html=1;" vertex="1" parent="L8F_WE0kTv24C7yc9nqN-1">
          <mxGeometry x="790" y="70" width="120" height="80" as="geometry" />
        </mxCell>
        <mxCell id="L8F_WE0kTv24C7yc9nqN-8" value="Tư vấn khách hàng" style="ellipse;whiteSpace=wrap;html=1;" vertex="1" parent="L8F_WE0kTv24C7yc9nqN-1">
          <mxGeometry x="130" y="540" width="120" height="80" as="geometry" />
        </mxCell>
        <mxCell id="L8F_WE0kTv24C7yc9nqN-7" value="&lt;span style=&quot;font-weight: normal;&quot;&gt;Xem danh sách đơn hàng&lt;/span&gt;" style="ellipse;whiteSpace=wrap;html=1;fontStyle=1" vertex="1" parent="L8F_WE0kTv24C7yc9nqN-1">
          <mxGeometry x="110" y="390" width="120" height="80" as="geometry" />
        </mxCell>
        <mxCell id="L8F_WE0kTv24C7yc9nqN-6" value="&lt;span style=&quot;font-weight: normal;&quot;&gt;Xem danh mục sản phẩm&lt;/span&gt;" style="ellipse;whiteSpace=wrap;html=1;fontStyle=1" vertex="1" parent="L8F_WE0kTv24C7yc9nqN-1">
          <mxGeometry x="100" y="250" width="120" height="80" as="geometry" />
        </mxCell>
        <mxCell id="L8F_WE0kTv24C7yc9nqN-23" value="Sửa sản phẩm" style="ellipse;whiteSpace=wrap;html=1;" vertex="1" parent="L8F_WE0kTv24C7yc9nqN-1">
          <mxGeometry x="530" y="40" width="120" height="80" as="geometry" />
        </mxCell>
        <mxCell id="L8F_WE0kTv24C7yc9nqN-22" value="Thêm sản phẩm" style="ellipse;whiteSpace=wrap;html=1;" vertex="1" parent="L8F_WE0kTv24C7yc9nqN-1">
          <mxGeometry x="290" y="40" width="120" height="80" as="geometry" />
        </mxCell>
        <mxCell id="L8F_WE0kTv24C7yc9nqN-32" value="&amp;lt;&amp;lt;extend&amp;gt;&amp;gt;" style="endArrow=open;endSize=12;dashed=1;html=1;rounded=0;exitX=0;exitY=0.5;exitDx=0;exitDy=0;" edge="1" parent="L8F_WE0kTv24C7yc9nqN-1" source="L8F_WE0kTv24C7yc9nqN-22" target="L8F_WE0kTv24C7yc9nqN-6">
          <mxGeometry width="160" relative="1" as="geometry">
            <mxPoint x="240" y="190" as="sourcePoint" />
            <mxPoint x="400" y="190" as="targetPoint" />
          </mxGeometry>
        </mxCell>
        <mxCell id="L8F_WE0kTv24C7yc9nqN-33" value="&amp;lt;&amp;lt;extend&amp;gt;&amp;gt;" style="endArrow=open;endSize=12;dashed=1;html=1;rounded=0;exitX=0;exitY=0.68;exitDx=0;exitDy=0;entryX=0.942;entryY=0.199;entryDx=0;entryDy=0;entryPerimeter=0;exitPerimeter=0;" edge="1" parent="L8F_WE0kTv24C7yc9nqN-1" source="L8F_WE0kTv24C7yc9nqN-19" target="L8F_WE0kTv24C7yc9nqN-6">
          <mxGeometry width="160" relative="1" as="geometry">
            <mxPoint x="477" y="160" as="sourcePoint" />
            <mxPoint x="370" y="333" as="targetPoint" />
          </mxGeometry>
        </mxCell>
        <mxCell id="L8F_WE0kTv24C7yc9nqN-34" value="&amp;lt;&amp;lt;extend&amp;gt;&amp;gt;" style="endArrow=open;endSize=12;dashed=1;html=1;rounded=0;exitX=0;exitY=0.5;exitDx=0;exitDy=0;" edge="1" parent="L8F_WE0kTv24C7yc9nqN-1" source="L8F_WE0kTv24C7yc9nqN-23" target="L8F_WE0kTv24C7yc9nqN-6">
          <mxGeometry x="-0.0154" y="-1" width="160" relative="1" as="geometry">
            <mxPoint x="777" y="190" as="sourcePoint" />
            <mxPoint x="670" y="363" as="targetPoint" />
            <mxPoint as="offset" />
          </mxGeometry>
        </mxCell>
        <mxCell id="L8F_WE0kTv24C7yc9nqN-35" value="&amp;lt;&amp;lt;extend&amp;gt;&amp;gt;" style="endArrow=open;endSize=12;dashed=1;html=1;rounded=0;" edge="1" parent="L8F_WE0kTv24C7yc9nqN-1" source="L8F_WE0kTv24C7yc9nqN-15" target="L8F_WE0kTv24C7yc9nqN-7">
          <mxGeometry width="160" relative="1" as="geometry">
            <mxPoint x="477" y="340" as="sourcePoint" />
            <mxPoint x="270" y="432" as="targetPoint" />
          </mxGeometry>
        </mxCell>
        <mxCell id="L8F_WE0kTv24C7yc9nqN-36" value="&amp;lt;&amp;lt;extend&amp;gt;&amp;gt;" style="endArrow=open;endSize=12;dashed=1;html=1;rounded=0;entryX=1;entryY=0.5;entryDx=0;entryDy=0;" edge="1" parent="L8F_WE0kTv24C7yc9nqN-1" source="L8F_WE0kTv24C7yc9nqN-13" target="L8F_WE0kTv24C7yc9nqN-7">
          <mxGeometry width="160" relative="1" as="geometry">
            <mxPoint x="547" y="430" as="sourcePoint" />
            <mxPoint x="340" y="522" as="targetPoint" />
          </mxGeometry>
        </mxCell>
        <mxCell id="L8F_WE0kTv24C7yc9nqN-38" value="&amp;lt;&amp;lt;include&amp;gt;&amp;gt;" style="endArrow=open;endSize=12;dashed=1;html=1;rounded=0;exitX=1;exitY=0.5;exitDx=0;exitDy=0;" edge="1" parent="L8F_WE0kTv24C7yc9nqN-1" source="L8F_WE0kTv24C7yc9nqN-13" target="L8F_WE0kTv24C7yc9nqN-20">
          <mxGeometry width="160" relative="1" as="geometry">
            <mxPoint x="767" y="410" as="sourcePoint" />
            <mxPoint x="630" y="430" as="targetPoint" />
          </mxGeometry>
        </mxCell>
        <mxCell id="L8F_WE0kTv24C7yc9nqN-40" value="&amp;lt;&amp;lt;extend&amp;gt;&amp;gt;" style="endArrow=open;endSize=12;dashed=1;html=1;rounded=0;exitX=0;exitY=1;exitDx=0;exitDy=0;" edge="1" parent="L8F_WE0kTv24C7yc9nqN-1" source="L8F_WE0kTv24C7yc9nqN-14" target="L8F_WE0kTv24C7yc9nqN-13">
          <mxGeometry width="160" relative="1" as="geometry">
            <mxPoint x="967" y="280" as="sourcePoint" />
            <mxPoint x="760" y="372" as="targetPoint" />
          </mxGeometry>
        </mxCell>
        <mxCell id="L8F_WE0kTv24C7yc9nqN-41" value="&amp;lt;&amp;lt;extend&amp;gt;&amp;gt;" style="endArrow=open;endSize=12;dashed=1;html=1;rounded=0;entryX=1;entryY=0;entryDx=0;entryDy=0;" edge="1" parent="L8F_WE0kTv24C7yc9nqN-1" source="L8F_WE0kTv24C7yc9nqN-14" target="L8F_WE0kTv24C7yc9nqN-10">
          <mxGeometry width="160" relative="1" as="geometry">
            <mxPoint x="937" y="330" as="sourcePoint" />
            <mxPoint x="730" y="422" as="targetPoint" />
          </mxGeometry>
        </mxCell>
        <mxCell id="L8F_WE0kTv24C7yc9nqN-42" value="&amp;lt;&amp;lt;extend&amp;gt;&amp;gt;" style="endArrow=open;endSize=12;dashed=1;html=1;rounded=0;exitX=0.071;exitY=0.341;exitDx=0;exitDy=0;entryX=0.923;entryY=0.213;entryDx=0;entryDy=0;entryPerimeter=0;exitPerimeter=0;" edge="1" parent="L8F_WE0kTv24C7yc9nqN-1" source="L8F_WE0kTv24C7yc9nqN-14" target="L8F_WE0kTv24C7yc9nqN-15">
          <mxGeometry width="160" relative="1" as="geometry">
            <mxPoint x="840.4000000000086" y="191.63" as="sourcePoint" />
            <mxPoint x="479.9966474857441" y="219.99968402992943" as="targetPoint" />
            <Array as="points">
              <mxPoint x="660" y="170" />
            </Array>
          </mxGeometry>
        </mxCell>
        <mxCell id="L8F_WE0kTv24C7yc9nqN-43" value="&amp;lt;&amp;lt;extend&amp;gt;&amp;gt;" style="endArrow=open;endSize=12;dashed=1;html=1;rounded=0;exitX=0;exitY=1;exitDx=0;exitDy=0;entryX=1;entryY=0;entryDx=0;entryDy=0;" edge="1" parent="L8F_WE0kTv24C7yc9nqN-1" source="L8F_WE0kTv24C7yc9nqN-16" target="L8F_WE0kTv24C7yc9nqN-17">
          <mxGeometry width="160" relative="1" as="geometry">
            <mxPoint x="967" y="550" as="sourcePoint" />
            <mxPoint x="760" y="642" as="targetPoint" />
          </mxGeometry>
        </mxCell>
        <mxCell id="L8F_WE0kTv24C7yc9nqN-44" value="&amp;lt;&amp;lt;extend&amp;gt;&amp;gt;" style="endArrow=open;endSize=12;dashed=1;html=1;rounded=0;exitX=0;exitY=0.5;exitDx=0;exitDy=0;entryX=0.945;entryY=0.285;entryDx=0;entryDy=0;entryPerimeter=0;" edge="1" parent="L8F_WE0kTv24C7yc9nqN-1" source="L8F_WE0kTv24C7yc9nqN-17" target="L8F_WE0kTv24C7yc9nqN-9">
          <mxGeometry width="160" relative="1" as="geometry">
            <mxPoint x="537" y="610" as="sourcePoint" />
            <mxPoint x="330" y="702" as="targetPoint" />
          </mxGeometry>
        </mxCell>
        <mxCell id="L8F_WE0kTv24C7yc9nqN-45" value="&amp;lt;&amp;lt;extend&amp;gt;&amp;gt;" style="endArrow=open;endSize=12;dashed=1;html=1;rounded=0;exitX=0;exitY=0.5;exitDx=0;exitDy=0;entryX=1;entryY=0.5;entryDx=0;entryDy=0;" edge="1" parent="L8F_WE0kTv24C7yc9nqN-1" source="L8F_WE0kTv24C7yc9nqN-12" target="L8F_WE0kTv24C7yc9nqN-9">
          <mxGeometry width="160" relative="1" as="geometry">
            <mxPoint x="577" y="680" as="sourcePoint" />
            <mxPoint x="370" y="772" as="targetPoint" />
          </mxGeometry>
        </mxCell>
        <mxCell id="L8F_WE0kTv24C7yc9nqN-48" value="&amp;lt;&amp;lt;extend&amp;gt;&amp;gt;" style="endArrow=open;endSize=12;dashed=1;html=1;rounded=0;exitX=0.021;exitY=0.675;exitDx=0;exitDy=0;exitPerimeter=0;" edge="1" parent="L8F_WE0kTv24C7yc9nqN-1" source="L8F_WE0kTv24C7yc9nqN-11">
          <mxGeometry width="160" relative="1" as="geometry">
            <mxPoint x="697" y="370" as="sourcePoint" />
            <mxPoint x="500" y="462" as="targetPoint" />
          </mxGeometry>
        </mxCell>
        <mxCell id="7KAacbBbOtTTsOqDtR2a-60" value="Use" style="endArrow=open;endSize=12;dashed=1;html=1;rounded=0;fontStyle=1" edge="1" parent="1" source="7KAacbBbOtTTsOqDtR2a-16" target="7KAacbBbOtTTsOqDtR2a-17">
          <mxGeometry width="160" relative="1" as="geometry">
            <mxPoint x="170" y="-580" as="sourcePoint" />
            <mxPoint x="270" y="-580" as="targetPoint" />
          </mxGeometry>
        </mxCell>
        <mxCell id="7KAacbBbOtTTsOqDtR2a-62" value="Extends" style="endArrow=block;endSize=16;endFill=0;html=1;rounded=0;fontStyle=1" edge="1" parent="1" source="7KAacbBbOtTTsOqDtR2a-27" target="7KAacbBbOtTTsOqDtR2a-25">
          <mxGeometry width="160" relative="1" as="geometry">
            <mxPoint x="616" y="-350" as="sourcePoint" />
            <mxPoint x="470" y="-333" as="targetPoint" />
          </mxGeometry>
        </mxCell>
        <mxCell id="L8F_WE0kTv24C7yc9nqN-21" style="rounded=0;orthogonalLoop=1;jettySize=auto;html=1;entryX=0;entryY=0.5;entryDx=0;entryDy=0;" edge="1" parent="1" source="L8F_WE0kTv24C7yc9nqN-2" target="L8F_WE0kTv24C7yc9nqN-5">
          <mxGeometry relative="1" as="geometry" />
        </mxCell>
        <mxCell id="L8F_WE0kTv24C7yc9nqN-28" style="rounded=0;orthogonalLoop=1;jettySize=auto;html=1;entryX=0;entryY=0.5;entryDx=0;entryDy=0;" edge="1" parent="1" source="L8F_WE0kTv24C7yc9nqN-2" target="L8F_WE0kTv24C7yc9nqN-6">
          <mxGeometry relative="1" as="geometry" />
        </mxCell>
        <mxCell id="L8F_WE0kTv24C7yc9nqN-30" style="rounded=0;orthogonalLoop=1;jettySize=auto;html=1;entryX=0;entryY=0.5;entryDx=0;entryDy=0;" edge="1" parent="1" source="L8F_WE0kTv24C7yc9nqN-2" target="L8F_WE0kTv24C7yc9nqN-8">
          <mxGeometry relative="1" as="geometry" />
        </mxCell>
        <mxCell id="L8F_WE0kTv24C7yc9nqN-2" value="Nhân viên bán hàng" style="shape=umlActor;verticalLabelPosition=bottom;verticalAlign=top;html=1;outlineConnect=0;fontStyle=1" vertex="1" parent="1">
          <mxGeometry x="-1790" y="-310" width="30" height="60" as="geometry" />
        </mxCell>
        <mxCell id="7KAacbBbOtTTsOqDtR2a-59" value="Use" style="endArrow=open;endSize=12;dashed=1;html=1;rounded=0;fontStyle=1" edge="1" parent="1" source="7KAacbBbOtTTsOqDtR2a-18" target="7KAacbBbOtTTsOqDtR2a-19">
          <mxGeometry width="160" relative="1" as="geometry">
            <mxPoint x="440" y="-470" as="sourcePoint" />
            <mxPoint x="600" y="-470" as="targetPoint" />
          </mxGeometry>
        </mxCell>
        <mxCell id="7KAacbBbOtTTsOqDtR2a-63" value="Extends" style="endArrow=block;endSize=16;endFill=0;html=1;rounded=0;fontStyle=1" edge="1" parent="1" source="7KAacbBbOtTTsOqDtR2a-28" target="7KAacbBbOtTTsOqDtR2a-25">
          <mxGeometry width="160" relative="1" as="geometry">
            <mxPoint x="626" y="-320" as="sourcePoint" />
            <mxPoint x="480" y="-303" as="targetPoint" />
          </mxGeometry>
        </mxCell>
        <mxCell id="7KAacbBbOtTTsOqDtR2a-67" value="Use" style="endArrow=open;endSize=12;dashed=1;html=1;rounded=0;fontStyle=1" edge="1" parent="1" source="7KAacbBbOtTTsOqDtR2a-16" target="7KAacbBbOtTTsOqDtR2a-18">
          <mxGeometry width="160" relative="1" as="geometry">
            <mxPoint x="180" y="-490" as="sourcePoint" />
            <mxPoint x="280" y="-490" as="targetPoint" />
          </mxGeometry>
        </mxCell>
        <mxCell id="7KAacbBbOtTTsOqDtR2a-64" value="Extends" style="endArrow=block;endSize=16;endFill=0;html=1;rounded=0;fontStyle=1" edge="1" parent="1" source="7KAacbBbOtTTsOqDtR2a-29" target="7KAacbBbOtTTsOqDtR2a-26">
          <mxGeometry width="160" relative="1" as="geometry">
            <mxPoint x="526" y="-230" as="sourcePoint" />
            <mxPoint x="380" y="-213" as="targetPoint" />
          </mxGeometry>
        </mxCell>
        <mxCell id="7KAacbBbOtTTsOqDtR2a-68" value="Quản lý hệ thống bán hàng" style="text;html=1;align=center;verticalAlign=middle;resizable=0;points=[];autosize=1;strokeColor=none;fillColor=none;fontStyle=1" vertex="1" parent="1">
          <mxGeometry x="265" y="-10" width="170" height="30" as="geometry" />
        </mxCell>
        <mxCell id="7KAacbBbOtTTsOqDtR2a-65" value="Extends" style="endArrow=block;endSize=16;endFill=0;html=1;rounded=0;fontStyle=1" edge="1" parent="1" source="7KAacbBbOtTTsOqDtR2a-30" target="7KAacbBbOtTTsOqDtR2a-26">
          <mxGeometry width="160" relative="1" as="geometry">
            <mxPoint x="526" y="-200" as="sourcePoint" />
            <mxPoint x="380" y="-183" as="targetPoint" />
          </mxGeometry>
        </mxCell>
        <mxCell id="L8F_WE0kTv24C7yc9nqN-24" value="Cập nhật sản phẩm khuyến mãi" style="ellipse;whiteSpace=wrap;html=1;" vertex="1" parent="1">
          <mxGeometry x="-980" y="-170" width="120" height="80" as="geometry" />
        </mxCell>
        <mxCell id="L8F_WE0kTv24C7yc9nqN-25" value="Thêm mã giảm giá" style="ellipse;whiteSpace=wrap;html=1;" vertex="1" parent="1">
          <mxGeometry x="-770" y="-140" width="120" height="80" as="geometry" />
        </mxCell>
        <mxCell id="L8F_WE0kTv24C7yc9nqN-26" value="Cập nhật mã giảm giá" style="ellipse;whiteSpace=wrap;html=1;" vertex="1" parent="1">
          <mxGeometry x="-930" y="-20" width="120" height="80" as="geometry" />
        </mxCell>
        <mxCell id="L8F_WE0kTv24C7yc9nqN-29" style="rounded=0;orthogonalLoop=1;jettySize=auto;html=1;entryX=0.042;entryY=0.642;entryDx=0;entryDy=0;entryPerimeter=0;" edge="1" parent="1" source="L8F_WE0kTv24C7yc9nqN-2" target="L8F_WE0kTv24C7yc9nqN-7">
          <mxGeometry relative="1" as="geometry" />
        </mxCell>
        <mxCell id="L8F_WE0kTv24C7yc9nqN-31" style="rounded=0;orthogonalLoop=1;jettySize=auto;html=1;entryX=0.004;entryY=0.655;entryDx=0;entryDy=0;entryPerimeter=0;" edge="1" parent="1" source="L8F_WE0kTv24C7yc9nqN-2" target="L8F_WE0kTv24C7yc9nqN-9">
          <mxGeometry relative="1" as="geometry" />
        </mxCell>
        <mxCell id="L8F_WE0kTv24C7yc9nqN-37" value="&amp;lt;&amp;lt;extend&amp;gt;&amp;gt;" style="endArrow=open;endSize=12;dashed=1;html=1;rounded=0;entryX=0.939;entryY=0.826;entryDx=0;entryDy=0;entryPerimeter=0;" edge="1" parent="1" target="L8F_WE0kTv24C7yc9nqN-7">
          <mxGeometry width="160" relative="1" as="geometry">
            <mxPoint x="-1230" y="-200" as="sourcePoint" />
            <mxPoint x="-1310" y="-98" as="targetPoint" />
          </mxGeometry>
        </mxCell>
        <mxCell id="L8F_WE0kTv24C7yc9nqN-39" value="&amp;lt;&amp;lt;extend&amp;gt;&amp;gt;" style="endArrow=open;endSize=12;dashed=1;html=1;rounded=0;" edge="1" parent="1" source="L8F_WE0kTv24C7yc9nqN-24" target="L8F_WE0kTv24C7yc9nqN-17">
          <mxGeometry width="160" relative="1" as="geometry">
            <mxPoint x="-843" y="-170" as="sourcePoint" />
            <mxPoint x="-1050" y="-78" as="targetPoint" />
          </mxGeometry>
        </mxCell>
        <mxCell id="L8F_WE0kTv24C7yc9nqN-46" value="&amp;lt;&amp;lt;extend&amp;gt;&amp;gt;" style="endArrow=open;endSize=12;dashed=1;html=1;rounded=0;entryX=0.946;entryY=0.191;entryDx=0;entryDy=0;entryPerimeter=0;" edge="1" parent="1" source="L8F_WE0kTv24C7yc9nqN-25" target="L8F_WE0kTv24C7yc9nqN-12">
          <mxGeometry width="160" relative="1" as="geometry">
            <mxPoint x="-753" y="-40" as="sourcePoint" />
            <mxPoint x="-960" y="52" as="targetPoint" />
          </mxGeometry>
        </mxCell>
        <mxCell id="L8F_WE0kTv24C7yc9nqN-47" value="&amp;lt;&amp;lt;extend&amp;gt;&amp;gt;" style="endArrow=open;endSize=12;dashed=1;html=1;rounded=0;entryX=0.988;entryY=0.602;entryDx=0;entryDy=0;entryPerimeter=0;" edge="1" parent="1" target="L8F_WE0kTv24C7yc9nqN-12">
          <mxGeometry width="160" relative="1" as="geometry">
            <mxPoint x="-920" y="25" as="sourcePoint" />
            <mxPoint x="-990" y="112" as="targetPoint" />
          </mxGeometry>
        </mxCell>
      </root>
    </mxGraphModel>
  </diagram>
  <diagram id="2F3YAuvJm_2TOrWDlFDI" name="Trang-2">
    <mxGraphModel grid="1" page="1" gridSize="10" guides="1" tooltips="1" connect="1" arrows="1" fold="1" pageScale="1" pageWidth="3300" pageHeight="4681" math="0" shadow="0">
      <root>
        <mxCell id="0" />
        <mxCell id="1" parent="0" />
        <mxCell id="2IpPNuM7LPJykNGAtpQ8-1" value="Text" style="text;html=1;align=center;verticalAlign=middle;resizable=0;points=[];autosize=1;strokeColor=none;fillColor=none;" vertex="1" parent="1">
          <mxGeometry x="765" y="438" width="50" height="30" as="geometry" />
        </mxCell>
      </root>
    </mxGraphModel>
  </diagram>
</mxfile>
